<svg version="1.1" xmlns="http://www.w3.org/2000/svg" viewBox="250 300 430 430">
        <path d="M0 0 C4.85378514 4.10800509 9.559251 8.32812208 14.1875 12.6875 C15.51132222 13.92880844 16.83554571 15.16968906 18.16015625 16.41015625 C18.81000488 17.01875488 19.45985352 17.62735352 20.12939453 18.25439453 C23.74327655 21.62678509 27.3949865 24.95753117 31.04296875 28.29296875 C34.1833317 31.16490669 37.31137033 34.05008448 40.4375 36.9375 C40.97705322 37.43580322 41.51660645 37.93410645 42.07250977 38.44750977 C44.26375365 40.47157784 46.45462243 42.49605171 48.64550781 44.52050781 C54.42124684 49.85697495 60.20049542 55.18935718 66 60.5 C71.80103264 65.81204208 77.58169117 71.14594334 83.35888672 76.48388672 C84.99020187 77.99094817 86.62195809 79.4975303 88.25390625 81.00390625 C88.79031738 81.49914795 89.32672852 81.99438965 89.87939453 82.50463867 C90.95406492 83.49625604 92.0292549 84.48731061 93.10498047 85.4777832 C95.93875998 88.08852183 98.7603546 90.71102137 101.56640625 93.3515625 C102.44425781 94.17333984 102.44425781 94.17333984 103.33984375 95.01171875 C104.45925179 96.06005326 105.5753383 97.11194983 106.6875 98.16796875 C109.29766611 100.60545212 111.67267794 102.64353777 115 104 C115.7734375 103.28714844 116.546875 102.57429688 117.34375 101.83984375 C122.51530405 97.0813478 127.69811721 92.34686101 133.0078125 87.7421875 C135.36020635 85.68499601 137.68034966 83.59403085 140 81.5 C143.61676345 78.23609152 147.26389608 75.01209051 150.9375 71.8125 C153.30964429 69.72788836 155.65556065 67.61571356 158 65.5 C160.98062721 62.81016569 163.97245233 60.13689636 167 57.5 C171.71701284 53.38918961 176.35638889 49.19332155 181 45 C186.27985576 40.23213025 191.57291806 35.48487782 196.9375 30.8125 C199.30964429 28.72788836 201.65556065 26.61571356 204 24.5 C207.61342852 21.23910109 211.25481096 18.0155589 214.9296875 14.82421875 C218.16794032 11.97089032 221.3362797 9.04045005 224.5078125 6.11328125 C227.22434427 3.8097645 230.0053097 1.92267798 233 0 C261.89328694 37.68422319 271.75381497 85.07589771 265.875 131.875 C261.92361335 159.74638795 252.06372964 186.88550202 236.6875 210.5 C236.05642334 211.48093628 236.05642334 211.48093628 235.41259766 212.48168945 C234.19921875 214.28125 234.19921875 214.28125 232 217 C227.07404904 217 224.62416052 213.2584502 221.25 209.9375 C220.53972656 209.28072266 219.82945312 208.62394531 219.09765625 207.94726562 C214.06914871 203.01115812 214.06914871 203.01115812 213.76171875 198.515625 C215.25844689 194.26623912 217.23731016 190.65568277 219.5625 186.8125 C240.857572 149.90308346 246.2581102 105.43529417 235.5703125 64.28515625 C233.30943809 56.261298 230.09782515 48.5880149 226.76855469 40.95678711 C225.99645333 38.99096997 225.46555905 37.05794343 225 35 C219.68888383 39.51360033 214.58244795 44.23297109 209.5 49 C205.13709894 53.09184422 200.75505347 57.1316207 196.21875 61.03125 C192.92043532 63.95792359 189.71620168 66.98363998 186.5 70 C182.13708242 74.09182367 177.75505357 78.13162062 173.21875 82.03125 C169.92043437 84.95792443 166.71622658 87.98366514 163.5 91 C159.08643683 95.13872197 154.65491416 99.23018217 150.0703125 103.1796875 C145.52189588 107.17886135 141.11405609 111.33766708 136.67138672 115.45361328 C133.08160215 118.77492433 129.47810457 122.08096233 125.86328125 125.375 C123.94963814 127.12939041 122.05113747 128.90043782 120.16796875 130.6875 C119.28753906 131.5125 118.40710938 132.3375 117.5 133.1875 C116.7265625 133.92355469 115.953125 134.65960937 115.15625 135.41796875 C113 137 113 137 109 137 C106.91129661 135.3543549 105.07669704 133.72733466 103.1875 131.875 C102.02479613 130.76816977 100.86203336 129.6614014 99.69921875 128.5546875 C98.79115479 127.68021973 98.79115479 127.68021973 97.86474609 126.78808594 C94.77464199 123.82501675 91.63434333 120.91610136 88.5 118 C87.22903524 116.81264066 85.95820121 115.62514138 84.6875 114.4375 C81.30332794 111.27893941 77.90472765 108.13637473 74.5 105 C69.81594361 100.68513032 65.15272065 96.34863679 60.5 92 C50.7570313 82.89771971 41.00717428 73.81256876 31 65 C30.18481119 77.33878212 29.73145226 89.66156451 29.44335938 102.02294922 C29.39583416 103.96818163 29.34804076 105.9134075 29.30000305 107.85862732 C29.19797986 112.01077422 29.0977176 116.16295837 28.99885559 120.31518173 C28.84221449 126.88941359 28.68091254 133.46352627 28.5189209 140.03762817 C28.11758383 156.35389661 27.72230541 172.67031116 27.32818604 188.98675537 C27.02109002 201.69752739 26.71231927 214.40825411 26.39858294 227.11886418 C26.23765356 233.64632358 26.08013086 240.17385335 25.92523956 246.70145869 C25.82806698 250.76533548 25.72785351 254.82913323 25.62682152 258.89291573 C25.58080456 260.76852043 25.53602839 262.64415608 25.49262428 264.51982307 C25.27924709 273.71342071 25.0531606 282.85473408 24 292 C17.85522302 290.31228187 11.879074 288.29597925 5.9375 286 C5.27032959 285.7510498 4.60315918 285.50209961 3.91577148 285.24560547 C2.24018003 284.58403387 0.61418655 283.7998034 -1 283 C-1.99576438 280.01270687 -2.12569322 278.05849744 -2.12698364 274.94006348 C-2.1298063 273.88865897 -2.13262896 272.83725447 -2.13553715 271.75398922 C-2.13351008 270.59573918 -2.13148302 269.43748915 -2.12939453 268.24414062 C-2.13112136 267.01779435 -2.13284819 265.79144808 -2.13462734 264.5279398 C-2.13824628 261.12356131 -2.13729108 257.71924161 -2.13421178 254.3148663 C-2.13232617 251.40600472 -2.13398079 248.49714951 -2.13566166 245.58828813 C-2.14065776 236.88177122 -2.13595276 228.17527564 -2.12877274 219.46876144 C-2.12476343 214.51702653 -2.12291947 209.56529209 -2.12130737 204.61355591 C-2.1041689 158.05210256 -1.95113452 111.49199728 -1.60972524 64.93176377 C-1.57791758 60.59283722 -1.54736982 56.25390446 -1.51790267 51.9149614 C-1.46696355 44.42180819 -1.4103757 36.92873251 -1.34718513 29.43567085 C-1.3268451 26.95613387 -1.30805258 24.47658365 -1.29089165 21.99702263 C-1.26709744 18.63784692 -1.23713036 15.27878573 -1.20532227 11.91967773 C-1.19956743 10.93253532 -1.1938126 9.94539291 -1.18788338 8.9283371 C-1.17809393 8.03610191 -1.16830448 7.14386673 -1.15821838 6.22459412 C-1.15176583 5.45132499 -1.14531328 4.67805586 -1.1386652 3.88135433 C-1 2 -1 2 0 0 Z " fill="#0B1A9F" transform="translate(399,394)"/>
        <path d="M0 0 C2.17431875 1.88308201 4.37759258 3.70893447 6.640625 5.484375 C8.12175781 6.64839844 8.12175781 6.64839844 9.6328125 7.8359375 C10.50421875 8.50496094 11.375625 9.17398438 12.2734375 9.86328125 C14.3828125 11.8984375 14.3828125 11.8984375 16.3828125 16.8984375 C11.1028125 22.1784375 5.8228125 27.4584375 0.3828125 32.8984375 C-3.60707403 30.90349423 -6.51363591 28.50991743 -9.8046875 25.5859375 C-50.07333218 -9.48312554 -94.6103221 -29.56235642 -148.6171875 -27.1015625 C-183.22999324 -24.00476727 -217.43715469 -5.43802976 -242.6171875 17.8984375 C-243.18920898 18.42663086 -243.76123047 18.95482422 -244.35058594 19.49902344 C-275.61318054 48.714967 -293.2443645 91.24838461 -294.8984375 133.84765625 C-295.52634597 161.06792446 -289.64993742 186.50716016 -277.6171875 210.8984375 C-277.23014648 211.69024414 -276.84310547 212.48205078 -276.44433594 213.29785156 C-271.06535561 224.19907805 -265.17298129 234.36354872 -257.6171875 243.8984375 C-257.14522949 244.49527344 -256.67327148 245.09210938 -256.18701172 245.70703125 C-250.39495463 252.93802565 -244.53184599 259.26846674 -237.08984375 264.8359375 C-236.27386719 265.5165625 -235.45789063 266.1971875 -234.6171875 266.8984375 C-233.69421875 267.66414063 -232.77125 268.42984375 -231.8203125 269.21875 C-227.74674751 274.29254563 -229.10941542 281.63968364 -229.3046875 287.7734375 C-229.32979528 289.14318858 -229.35260411 290.51298385 -229.37304688 291.8828125 C-229.4318439 295.22248372 -229.51398916 298.55989181 -229.6171875 301.8984375 C-233.89814522 300.27404785 -237.42578008 298.14151013 -241.1171875 295.4609375 C-241.72812256 295.01919189 -242.33905762 294.57744629 -242.96850586 294.12231445 C-284.57220612 263.64724217 -308.25096526 220.98724467 -318.6171875 170.8984375 C-318.78234863 170.11823242 -318.94750977 169.33802734 -319.11767578 168.53417969 C-323.7781015 145.83448463 -321.96425065 123.50008557 -317.6171875 100.8984375 C-317.46233887 100.08407227 -317.30749023 99.26970703 -317.14794922 98.43066406 C-313.64773085 80.62335155 -307.25344929 63.81956559 -298.6171875 47.8984375 C-297.69486328 46.14660156 -297.69486328 46.14660156 -296.75390625 44.359375 C-289.92812589 31.83837832 -281.33886241 20.48619873 -271.625 10.05859375 C-269.74230756 8.03305111 -267.95981689 5.95139359 -266.1796875 3.8359375 C-254.42965146 -9.54308081 -238.99841945 -20.3122871 -223.6171875 -29.1015625 C-223.0195459 -29.45283203 -222.4219043 -29.80410156 -221.80615234 -30.16601562 C-148.04650797 -73.24787847 -61.76898194 -53.77350458 0 0 Z " fill="#0B1A9F" transform="translate(600.6171875,360.1015625)"/>
        <path d="M0 0 C6.41069287 5.27101414 12.18590512 11.09128152 18 17 C12.37109069 33.30940389 -7.53869084 43.50895294 -22 51 C-22.7518457 51.39687012 -23.50369141 51.79374023 -24.27832031 52.20263672 C-58.1891781 69.93164387 -102.58236843 84.02017566 -141 76 C-142.32 75.34 -143.64 74.68 -145 74 C-144.67 66.08 -144.34 58.16 -144 50 C-141.57269531 50.03480469 -139.14539063 50.06960938 -136.64453125 50.10546875 C-111.17090244 50.48777178 -111.17090244 50.48777178 -86 47 C-85.18982422 46.82307617 -84.37964844 46.64615234 -83.54492188 46.46386719 C-51.88348338 39.29734143 -22.96563475 22.96563475 0 0 Z " fill="#0B1A9F" transform="translate(593,616)"/>
      </svg>